:FULLY-SPECIFIED
:FORCE-ALL-JOINTS-BE-3DOF
:DEGREES
275
root 9.83611 16.7061 1.73668 6.71086 -1.42843 1.62786
lfemur -17.7604 6.49516 -27.7088
ltibia 28.0251 0 0
lfoot -15.6937 4.93357 0
ltoes -3.54776 0 0
rfemur -21.1465 0.158806 17.2787
rtibia 42.0802 0 0
rfoot -11.3216 -6.9384 0
rtoes -21.2554 0 0
lowerback -5.60451 -1.62684 -3.21722
upperback -1.06213 -2.02778 1.9915
thorax 2.33685 -1.06146 3.67631
lowerneck -20.734 -4.41488 -12.258
upperneck 21.126 -5.36341 12.2965
head 10.9741 -2.0064 5.73595
lclavicle 1.52105e-14 4.75144e-15 0
lhumerus -23.1619 -14.0279 86.8637
lradius 24.0796 0 0
lwrist -0.113657 0 0
lhand -13.3692 -23.9067 0
lfingers 7.12502 0 0
lthumb 12.7348 5.64254 0
rclavicle 1.52105e-14 4.75144e-15 0
rhumerus -46.9648 7.79215 -84.1133
rradius 40.8738 0 0
rwrist -22.7599 0 0
rhand -29.5349 -21.7331 0
rfingers 7.12502 0 0
rthumb -2.86829 -51.6934 0
276
root 9.85327 16.7186 1.86657 6.60188 -1.27035 1.75028
lfemur -16.8456 6.38587 -27.8443
ltibia 27.5225 0 0
lfoot -15.9656 4.91996 0
ltoes -3.65066 0 0
rfemur -22.2662 0.11554 17.1903
rtibia 42.4832 0 0
rfoot -12.0674 -7.36059 0
rtoes -21.4655 0 0
lowerback -5.57662 -1.75829 -3.30798
upperback -0.99043 -2.19855 2.00024
thorax 2.40975 -1.14925 3.72361
lowerneck -20.8147 -4.36357 -12.1974
upperneck 21.2563 -5.29149 12.2148
head 11.0205 -1.97547 5.71104
lclavicle 1.64488e-14 5.11991e-15 0
lhumerus -22.3549 -14.3588 86.815
lradius 24.2268 0 0
lwrist 0.143072 0 0
lhand -13.5838 -23.9544 0
lfingers 7.12502 0 0
lthumb 12.528 5.60947 0
rclavicle 1.64488e-14 5.11991e-15 0
rhumerus -46.9704 7.77603 -84.0173
rradius 40.885 0 0
rwrist -22.7896 0 0
rhand -29.5486 -21.7048 0
rfingers 7.12502 0 0
rthumb -2.8815 -51.6649 0
277
root 9.87043 16.731 1.99646 6.49289 -1.11228 1.8727
lfemur -15.9308 6.27658 -27.9798
ltibia 27.0198 0 0
lfoot -16.2374 4.90635 0
ltoes -3.75357 0 0
rfemur -23.3858 0.0722744 17.1019
rtibia 42.8863 0 0
rfoot -12.8133 -7.78278 0
rtoes -21.6755 0 0
lowerback -5.54874 -1.88974 -3.39873
upperback -0.918732 -2.36933 2.00897
thorax 2.48265 -1.23705 3.77091
lowerneck -20.8954 -4.31226 -12.1369
upperneck 21.3867 -5.21958 12.1331
head 11.0669 -1.94453 5.68613
lclavicle 1.76871e-14 5.48839e-15 0
lhumerus -21.5479 -14.6897 86.7663
lradius 24.3741 0 0
lwrist 0.399801 0 0
lhand -13.7983 -24.0022 0
lfingers 7.12502 0 0
lthumb 12.3213 5.57641 0
rclavicle 1.76871e-14 5.48839e-15 0
rhumerus -46.9759 7.75991 -83.9214
rradius 40.8961 0 0
rwrist -22.8192 0 0
rhand -29.5623 -21.6764 0
rfingers 7.12502 0 0
rthumb -2.89471 -51.6364 0
278
root 9.88759 16.7434 2.12636 6.38391 -0.954211 1.99512
lfemur -15.0161 6.16729 -28.1152
ltibia 26.5172 0 0
lfoot -16.5093 4.89275 0
ltoes -3.85647 0 0
rfemur -24.5055 0.0290085 17.0135
rtibia 43.2894 0 0
rfoot -13.5591 -8.20498 0
rtoes -21.8855 0 0
lowerback -5.52085 -2.02119 -3.48949
upperback -0.847034 -2.5401 2.01771
thorax 2.55555 -1.32484 3.81821
lowerneck -20.9762 -4.26095 -12.0764
upperneck 21.517 -5.14766 12.0513
head 11.1134 -1.9136 5.66122
lclavicle 1.89255e-14 5.85687e-15 0
lhumerus -20.7408 -15.0206 86.7177
lradius 24.5213 0 0
lwrist 0.65653 0 0
lhand -14.0129 -24.0499 0
lfingers 7.12502 0 0
lthumb 12.1146 5.54335 0
rclavicle 1.89255e-14 5.85687e-15 0
rhumerus -46.9815 7.7438 -83.8254
rradius 40.9073 0 0
rwrist -22.8489 0 0
rhand -29.576 -21.6481 0
rfingers 7.12502 0 0
rthumb -2.90792 -51.6079 0
279
root 9.90475 16.7558 2.25625 6.27493 -0.796139 2.11754
lfemur -14.1013 6.058 -28.2507
ltibia 26.0145 0 0
lfoot -16.7811 4.87914 0
ltoes -3.95938 0 0
rfemur -25.6251 -0.0142573 16.9251
rtibia 43.6924 0 0
rfoot -14.305 -8.62717 0
rtoes -22.0955 0 0
lowerback -5.49297 -2.15264 -3.58025
upperback -0.775336 -2.71088 2.02644
thorax 2.62845 -1.41263 3.86552
lowerneck -21.0569 -4.20964 -12.0158
upperneck 21.6473 -5.07574 11.9696
head 11.1598 -1.88267 5.63631
lclavicle 2.01638e-14 6.22535e-15 0
lhumerus -19.9338 -15.3515 86.669
lradius 24.6686 0 0
lwrist 0.913259 0 0
lhand -14.2274 -24.0977 0
lfingers 7.12502 0 0
lthumb 11.9079 5.51029 0
rclavicle 2.01638e-14 6.22535e-15 0
rhumerus -46.9871 7.72768 -83.7295
rradius 40.9185 0 0
rwrist -22.8785 0 0
rhand -29.5897 -21.6198 0
rfingers 7.12502 0 0
rthumb -2.92114 -51.5794 0
280
root 9.92191 16.7682 2.38615 6.16594 -0.638068 2.23996
lfemur -13.1865 5.9487 -28.3862
ltibia 25.5119 0 0
lfoot -17.053 4.86553 0
ltoes -4.06229 0 0
rfemur -26.7448 -0.0575232 16.8367
rtibia 44.0955 0 0
rfoot -15.0508 -9.04936 0
rtoes -22.3055 0 0
lowerback -5.46508 -2.28409 -3.67101
upperback -0.703638 -2.88165 2.03518
thorax 2.70135 -1.50043 3.91282
lowerneck -21.1376 -4.15832 -11.9553
upperneck 21.7776 -5.00383 11.8878
head 11.2062 -1.85173 5.6114
lclavicle 2.14021e-14 6.59383e-15 0
lhumerus -19.1268 -15.6824 86.6203
lradius 24.8158 0 0
lwrist 1.16999 0 0
lhand -14.442 -24.1454 0
lfingers 7.12502 0 0
lthumb 11.7012 5.47723 0
rclavicle 2.14021e-14 6.59383e-15 0
rhumerus -46.9926 7.71156 -83.6335
rradius 40.9297 0 0
rwrist -22.9082 0 0
rhand -29.6033 -21.5915 0
rfingers 7.12502 0 0
rthumb -2.93435 -51.5509 0
281
root 9.93907 16.7806 2.51604 6.05696 -0.479996 2.36238
lfemur -12.2717 5.83941 -28.5217
ltibia 25.0092 0 0
lfoot -17.3249 4.85192 0
ltoes -4.16519 0 0
rfemur -27.8644 -0.100789 16.7483
rtibia 44.4986 0 0
rfoot -15.7967 -9.47155 0
rtoes -22.5155 0 0
lowerback -5.4372 -2.41554 -3.76176
upperback -0.63194 -3.05243 2.04391
thorax 2.77424 -1.58822 3.96012
lowerneck -21.2183 -4.10701 -11.8948
upperneck 21.9079 -4.93191 11.8061
head 11.2527 -1.8208 5.58649
lclavicle 2.26404e-14 6.96231e-15 0
lhumerus -18.3198 -16.0133 86.5716
lradius 24.9631 0 0
lwrist 1.42672 0 0
lhand -14.6565 -24.1932 0
lfingers 7.12502 0 0
lthumb 11.4944 5.44416 0
rclavicle 2.26404e-14 6.96231e-15 0
rhumerus -46.9982 7.69544 -83.5376
rradius 40.9408 0 0
rwrist -22.9378 0 0
rhand -29.617 -21.5632 0
rfingers 7.12502 0 0
rthumb -2.94756 -51.5224 0
282
root 9.95623 16.793 2.64594 5.94798 -0.321925 2.48481
lfemur -11.357 5.73012 -28.6572
ltibia 24.5066 0 0
lfoot -17.5967 4.83832 0
ltoes -4.2681 0 0
rfemur -28.9841 -0.144055 16.6598
rtibia 44.9016 0 0
rfoot -16.5425 -9.89375 0
rtoes -22.7255 0 0
lowerback -5.40931 -2.547 -3.85252
upperback -0.560243 -3.2232 2.05265
thorax 2.84714 -1.67601 4.00742
lowerneck -21.2991 -4.0557 -11.8342
upperneck 22.0383 -4.85999 11.7243
head 11.2991 -1.78987 5.56158
lclavicle 2.38787e-14 7.33079e-15 0
lhumerus -17.5128 -16.3442 86.5229
lradius 25.1103 0 0
lwrist 1.68345 0 0
lhand -14.8711 -24.2409 0
lfingers 7.12502 0 0
lthumb 11.2877 5.4111 0
rclavicle 2.38787e-14 7.33079e-15 0
rhumerus -47.0038 7.67932 -83.4416
rradius 40.952 0 0
rwrist -22.9675 0 0
rhand -29.6307 -21.5348 0
rfingers 7.12502 0 0
rthumb -2.96077 -51.494 0
